<svg width="20" height="21" viewBox="0 0 20 21" fill="none" xmlns="http://www.w3.org/2000/svg">
<path d="M10 2.16666C14.6025 2.16666 18.3333 5.89749 18.3333 10.5C18.3333 15.1025 14.6025 18.8333 10 18.8333C8.65185 18.8351 7.32357 18.5085 6.13 17.8817L2.555 18.8125C2.43554 18.8436 2.31003 18.843 2.19091 18.8106C2.07178 18.7783 1.96317 18.7154 1.87584 18.6281C1.78852 18.5409 1.72551 18.4323 1.69305 18.3132C1.6606 18.1941 1.65983 18.0686 1.69083 17.9492L2.62083 14.375C1.99233 13.1802 1.66481 11.85 1.66666 10.5C1.66666 5.89749 5.3975 2.16666 10 2.16666ZM10 13.4167C9.77898 13.4167 9.56702 13.5045 9.41074 13.6607C9.25446 13.817 9.16666 14.029 9.16666 14.25C9.16666 14.471 9.25446 14.683 9.41074 14.8392C9.56702 14.9955 9.77898 15.0833 10 15.0833C10.221 15.0833 10.433 14.9955 10.5893 14.8392C10.7455 14.683 10.8333 14.471 10.8333 14.25C10.8333 14.029 10.7455 13.817 10.5893 13.6607C10.433 13.5045 10.221 13.4167 10 13.4167ZM10 6.12499C9.39221 6.12499 8.80932 6.36643 8.37954 6.7962C7.94977 7.22597 7.70833 7.80887 7.70833 8.41666C7.70838 8.57501 7.76854 8.72744 7.87664 8.84315C7.98475 8.95886 8.13275 9.02922 8.29073 9.04001C8.44872 9.0508 8.60491 9.00123 8.72775 8.9013C8.85059 8.80136 8.93091 8.65853 8.9525 8.50166L8.96416 8.30999C8.99231 8.04504 9.12091 7.80095 9.32351 7.62792C9.52612 7.45488 9.78733 7.36607 10.0534 7.37973C10.3195 7.39339 10.5702 7.50849 10.7541 7.70137C10.9379 7.89424 11.0408 8.15022 11.0417 8.41666C11.0417 8.86582 10.9292 9.08749 10.5042 9.52666L10.2508 9.78499C9.6225 10.4383 9.375 10.9075 9.375 11.75C9.375 11.9157 9.44085 12.0747 9.55806 12.1919C9.67527 12.3091 9.83424 12.375 10 12.375C10.1658 12.375 10.3247 12.3091 10.4419 12.1919C10.5591 12.0747 10.625 11.9157 10.625 11.75C10.625 11.3008 10.7375 11.0792 11.1625 10.64L11.4158 10.3817C12.0442 9.72832 12.2917 9.25916 12.2917 8.41666C12.2917 7.80887 12.0502 7.22597 11.6205 6.7962C11.1907 6.36643 10.6078 6.12499 10 6.12499Z" fill="white"/>
</svg>
