<svg width="20" height="21" viewBox="0 0 20 21" fill="none" xmlns="http://www.w3.org/2000/svg">
<path d="M12.7062 13.925L14.1062 12.525C14.2948 12.3388 14.5334 12.2113 14.793 12.158C15.0526 12.1048 15.3221 12.128 15.5687 12.225L17.275 12.9062C17.5242 13.0074 17.738 13.1801 17.8892 13.4026C18.0405 13.625 18.1225 13.8873 18.125 14.1562V17.2812C18.1235 17.4642 18.0851 17.645 18.0119 17.8128C17.9387 17.9805 17.8324 18.1317 17.6993 18.2572C17.5661 18.3828 17.409 18.4801 17.2372 18.5433C17.0655 18.6065 16.8827 18.6343 16.7 18.625C4.74374 17.8812 2.33124 7.75624 1.87499 3.88124C1.85381 3.69096 1.87316 3.49834 1.93177 3.31606C1.99038 3.13379 2.08692 2.96599 2.21503 2.82371C2.34315 2.68142 2.49994 2.56787 2.67509 2.49053C2.85024 2.4132 3.03978 2.37382 3.23124 2.375H6.24999C6.51937 2.37579 6.78235 2.45716 7.00511 2.60864C7.22787 2.76011 7.40022 2.97477 7.49999 3.225L8.18124 4.93125C8.2814 5.17691 8.30695 5.44665 8.25471 5.70675C8.20247 5.96686 8.07474 6.20581 7.88749 6.39375L6.48749 7.79375C6.48749 7.79375 7.29374 13.25 12.7062 13.925Z" fill="white"/>
</svg>
