<svg width="20" height="21" viewBox="0 0 20 21" fill="none" xmlns="http://www.w3.org/2000/svg">
<path d="M6.34375 1H6.42109C7.54258 1 8.5832 1.59449 9.15273 2.5627L10 4.00445L10.8473 2.5627C11.4168 1.59449 12.4574 1 13.5789 1H13.6562C15.3648 1 16.75 2.38516 16.75 4.09375C16.75 4.6 16.627 5.04648 16.4125 5.5H17.875C18.4973 5.5 19 6.00273 19 6.625V8.875C19 9.49727 18.4973 10 17.875 10H2.125C1.50379 10 1 9.49727 1 8.875V6.625C1 6.00273 1.50379 5.5 2.125 5.5H3.5875C3.37164 5.04648 3.25 4.6 3.25 4.09375C3.25 2.38516 4.63516 1 6.34375 1ZM7.69727 3.41805C7.43008 2.96559 6.94492 2.6875 6.42109 2.6875H6.34375C5.5668 2.6875 4.9375 3.31715 4.9375 4.09375C4.9375 4.8707 5.5668 5.5 6.34375 5.5H8.9207L7.69727 3.41805ZM13.6562 2.6875H13.5789C13.0551 2.6875 12.5699 2.96559 12.3027 3.41805L11.0793 5.5H13.6562C14.4332 5.5 15.0625 4.8707 15.0625 4.09375C15.0625 3.31715 14.4332 2.6875 13.6562 2.6875ZM2.125 11.125H8.875V19H3.8125C2.88051 19 2.125 18.2441 2.125 17.3125V11.125ZM11.125 19V11.125H17.875V17.3125C17.875 18.2441 17.1191 19 16.1875 19H11.125Z" fill="white"/>
</svg>
