<svg width="20" height="19" viewBox="0 0 20 19" fill="none" xmlns="http://www.w3.org/2000/svg">
<g clip-path="url(#clip0_19_1015)">
<path d="M9.73507 5.75904L3.33333 11.0316V16.7222C3.33333 16.8696 3.39187 17.0109 3.49605 17.1151C3.60024 17.2193 3.74155 17.2778 3.88889 17.2778L7.77986 17.2677C7.92672 17.267 8.06732 17.2081 8.17091 17.104C8.27449 16.9999 8.33264 16.859 8.33264 16.7122V13.3889C8.33264 13.2416 8.39117 13.1002 8.49536 12.9961C8.59955 12.8919 8.74085 12.8333 8.8882 12.8333H11.1104C11.2578 12.8333 11.3991 12.8919 11.5033 12.9961C11.6074 13.1002 11.666 13.2416 11.666 13.3889V16.7097C11.6657 16.7828 11.6799 16.8553 11.7078 16.9229C11.7356 16.9905 11.7765 17.0519 11.8281 17.1037C11.8797 17.1555 11.941 17.1965 12.0085 17.2246C12.076 17.2526 12.1484 17.267 12.2215 17.267L16.1111 17.2778C16.2585 17.2778 16.3998 17.2193 16.504 17.1151C16.6081 17.0109 16.6667 16.8696 16.6667 16.7222V11.0278L10.2663 5.75904C10.1911 5.69839 10.0973 5.66531 10.0007 5.66531C9.90405 5.66531 9.81032 5.69839 9.73507 5.75904V5.75904ZM19.8472 9.34272L16.9444 6.95001V2.14064C16.9444 2.03013 16.9005 1.92415 16.8224 1.84601C16.7443 1.76787 16.6383 1.72397 16.5278 1.72397H14.5833C14.4728 1.72397 14.3668 1.76787 14.2887 1.84601C14.2106 1.92415 14.1667 2.03013 14.1667 2.14064V4.66182L11.058 2.10418C10.7597 1.85868 10.3853 1.72446 9.99896 1.72446C9.61261 1.72446 9.23826 1.85868 8.93993 2.10418L0.150696 9.34272C0.108504 9.37759 0.0735971 9.42044 0.0479694 9.4688C0.0223416 9.51717 0.00649536 9.57012 0.00133612 9.62461C-0.00382312 9.67911 0.00180574 9.73408 0.0179011 9.7864C0.0339964 9.83872 0.0602428 9.88735 0.0951405 9.92952L0.980557 11.0059C1.01536 11.0482 1.05817 11.0833 1.10653 11.109C1.15489 11.1348 1.20786 11.1507 1.26239 11.156C1.31693 11.1613 1.37197 11.1557 1.42436 11.1397C1.47675 11.1236 1.52546 11.0974 1.56771 11.0625L9.73507 4.33543C9.81032 4.27478 9.90405 4.2417 10.0007 4.2417C10.0973 4.2417 10.1911 4.27478 10.2663 4.33543L18.434 11.0625C18.4762 11.0974 18.5248 11.1237 18.5772 11.1398C18.6295 11.1558 18.6845 11.1615 18.7389 11.1563C18.7934 11.1512 18.8464 11.1353 18.8948 11.1097C18.9431 11.0841 18.986 11.0491 19.0208 11.007L19.9063 9.93057C19.9411 9.88815 19.9672 9.83927 19.9832 9.78672C19.9991 9.73417 20.0044 9.679 19.9989 9.62437C19.9935 9.56974 19.9772 9.51674 19.9512 9.4684C19.9252 9.42007 19.8898 9.37736 19.8472 9.34272V9.34272Z" fill="white"/>
</g>
<defs>
<clipPath id="clip0_19_1015">
<rect width="20" height="17.7778" fill="white" transform="translate(0 0.611115)"/>
</clipPath>
</defs>
</svg>
