<svg width="20" height="21" viewBox="0 0 20 21" fill="none" xmlns="http://www.w3.org/2000/svg">
<path d="M11 3.5C11 3.23478 10.8946 2.98043 10.7071 2.79289C10.5196 2.60536 10.2652 2.5 10 2.5C9.73478 2.5 9.48043 2.60536 9.29289 2.79289C9.10536 2.98043 9 3.23478 9 3.5V4.5C9 4.76522 9.10536 5.01957 9.29289 5.20711C9.48043 5.39464 9.73478 5.5 10 5.5C10.2652 5.5 10.5196 5.39464 10.7071 5.20711C10.8946 5.01957 11 4.76522 11 4.5V3.5ZM15.657 6.257C15.8392 6.0684 15.94 5.8158 15.9377 5.5536C15.9354 5.2914 15.8302 5.04059 15.6448 4.85518C15.4594 4.66977 15.2086 4.5646 14.9464 4.56233C14.6842 4.56005 14.4316 4.66084 14.243 4.843L13.536 5.55C13.3538 5.7386 13.253 5.9912 13.2553 6.2534C13.2576 6.5156 13.3628 6.76641 13.5482 6.95182C13.7336 7.13723 13.9844 7.2424 14.2466 7.24467C14.5088 7.24695 14.7614 7.14616 14.95 6.964L15.657 6.257ZM18 10.5C18 10.7652 17.8946 11.0196 17.7071 11.2071C17.5196 11.3946 17.2652 11.5 17 11.5H16C15.7348 11.5 15.4804 11.3946 15.2929 11.2071C15.1054 11.0196 15 10.7652 15 10.5C15 10.2348 15.1054 9.98043 15.2929 9.79289C15.4804 9.60536 15.7348 9.5 16 9.5H17C17.2652 9.5 17.5196 9.60536 17.7071 9.79289C17.8946 9.98043 18 10.2348 18 10.5ZM5.05 6.964C5.14225 7.05951 5.25259 7.13569 5.3746 7.1881C5.4966 7.24051 5.62782 7.2681 5.7606 7.26925C5.89338 7.2704 6.02506 7.2451 6.14795 7.19482C6.27085 7.14454 6.3825 7.07029 6.4764 6.9764C6.57029 6.8825 6.64454 6.77085 6.69482 6.64795C6.7451 6.52506 6.7704 6.39338 6.76925 6.2606C6.7681 6.12782 6.74051 5.9966 6.6881 5.8746C6.63569 5.75259 6.55951 5.64225 6.464 5.55L5.757 4.843C5.5684 4.66084 5.3158 4.56005 5.0536 4.56233C4.7914 4.5646 4.54059 4.66977 4.35518 4.85518C4.16977 5.04059 4.0646 5.2914 4.06233 5.5536C4.06005 5.8158 4.16084 6.0684 4.343 6.257L5.05 6.964ZM5 10.5C5 10.7652 4.89464 11.0196 4.70711 11.2071C4.51957 11.3946 4.26522 11.5 4 11.5H3C2.73478 11.5 2.48043 11.3946 2.29289 11.2071C2.10536 11.0196 2 10.7652 2 10.5C2 10.2348 2.10536 9.98043 2.29289 9.79289C2.48043 9.60536 2.73478 9.5 3 9.5H4C4.26522 9.5 4.51957 9.60536 4.70711 9.79289C4.89464 9.98043 5 10.2348 5 10.5ZM8 16.5V15.5H12V16.5C12 17.0304 11.7893 17.5391 11.4142 17.9142C11.0391 18.2893 10.5304 18.5 10 18.5C9.46957 18.5 8.96086 18.2893 8.58579 17.9142C8.21071 17.5391 8 17.0304 8 16.5ZM12 14.5C12.015 14.16 12.208 13.854 12.477 13.641C13.1297 13.1263 13.6058 12.421 13.8391 11.6232C14.0725 10.8253 14.0515 9.97466 13.7791 9.18933C13.5067 8.404 12.9964 7.72304 12.3191 7.24112C11.6418 6.75919 10.8312 6.50022 10 6.50022C9.16876 6.50022 8.35818 6.75919 7.6809 7.24112C7.00363 7.72304 6.49332 8.404 6.22091 9.18933C5.94849 9.97466 5.9275 10.8253 6.16086 11.6232C6.39421 12.421 6.87032 13.1263 7.523 13.641C7.793 13.854 7.985 14.16 7.999 14.5H12.001H12Z" fill="white"/>
</svg>
