<svg width="20" height="21" viewBox="0 0 20 21" fill="none" xmlns="http://www.w3.org/2000/svg">
<path d="M13.0078 15.5625C13.076 15.6551 13.1167 15.7652 13.125 15.8799C13.1333 15.9947 13.1089 16.1095 13.0547 16.2109C13.0011 16.3118 12.9213 16.3962 12.8237 16.4554C12.726 16.5145 12.6142 16.5461 12.5 16.5469H1.25001C1.13585 16.5461 1.02401 16.5145 0.926362 16.4554C0.828711 16.3962 0.748877 16.3118 0.695321 16.2109C0.641124 16.1095 0.616765 15.9947 0.62506 15.8799C0.633356 15.7652 0.673967 15.6551 0.742196 15.5625C1.6157 14.3135 2.85077 13.362 4.28126 12.8359C3.44271 12.2789 2.80577 11.4667 2.46471 10.5195C2.12365 9.57233 2.09659 8.54052 2.38753 7.57676C2.67846 6.61301 3.27194 5.76852 4.08014 5.16828C4.88833 4.56804 5.8683 4.24394 6.87501 4.24394C7.88172 4.24394 8.86168 4.56804 9.66988 5.16828C10.4781 5.76852 11.0716 6.61301 11.3625 7.57676C11.6534 8.54052 11.6264 9.57233 11.2853 10.5195C10.9442 11.4667 10.3073 12.2789 9.46876 12.8359C10.8992 13.362 12.1343 14.3135 13.0078 15.5625ZM19.3828 15.5625C18.5044 14.315 17.2674 13.3641 15.8359 12.8359C16.6772 12.281 17.3167 11.4694 17.6596 10.5217C18.0024 9.57407 18.0302 8.54106 17.7388 7.57636C17.4473 6.61167 16.8523 5.76682 16.0421 5.16749C15.2319 4.56816 14.2499 4.24638 13.2422 4.25C12.8121 4.25229 12.3841 4.31005 11.9688 4.42188C11.8712 4.45118 11.782 4.50332 11.7087 4.57397C11.6353 4.64462 11.5798 4.73175 11.5469 4.82813C11.5154 4.92372 11.5076 5.02548 11.5239 5.12477C11.5402 5.22407 11.5802 5.31795 11.6406 5.39844C12.3472 6.3478 12.7531 7.48708 12.806 8.66933C12.859 9.85158 12.5564 11.0226 11.9375 12.0313C11.8581 12.1653 11.831 12.3239 11.8613 12.4767C11.8915 12.6295 11.9771 12.7657 12.1016 12.8594C12.3359 13.0417 12.5625 13.2292 12.7813 13.4219L12.8203 13.4609C13.6542 14.2326 14.3308 15.1585 14.8125 16.1875C14.8619 16.295 14.9413 16.3861 15.041 16.4498C15.1407 16.5135 15.2567 16.5472 15.375 16.5469H18.8672C18.9814 16.5461 19.0932 16.5145 19.1908 16.4554C19.2885 16.3962 19.3683 16.3118 19.4219 16.2109C19.4754 16.1097 19.5001 15.9956 19.4932 15.8812C19.4863 15.7669 19.4481 15.6566 19.3828 15.5625Z" fill="white"/>
</svg>
