<svg width="55" height="16" viewBox="0 0 55 16" fill="none" xmlns="http://www.w3.org/2000/svg">
<path d="M3.68 11.54H8.5V15H0.1V0.999999H3.68V11.54ZM21.1039 13.2C19.6906 14.6 17.9572 15.3 15.9039 15.3C13.8506 15.3 12.1106 14.6 10.6839 13.2C9.27057 11.7867 8.56391 10.0533 8.56391 8C8.56391 5.94667 9.27057 4.22 10.6839 2.82C12.1106 1.40667 13.8506 0.699999 15.9039 0.699999C17.9572 0.699999 19.6906 1.40667 21.1039 2.82C22.5306 4.22 23.2439 5.94667 23.2439 8C23.2439 10.0533 22.5306 11.7867 21.1039 13.2ZM13.2039 10.74C13.9239 11.4467 14.8239 11.8 15.9039 11.8C16.9839 11.8 17.8839 11.4467 18.6039 10.74C19.3239 10.02 19.6839 9.10667 19.6839 8C19.6839 6.89333 19.3239 5.98667 18.6039 5.28C17.8839 4.56 16.9839 4.2 15.9039 4.2C14.8239 4.2 13.9239 4.56 13.2039 5.28C12.4839 5.98667 12.1239 6.89333 12.1239 8C12.1239 9.10667 12.4839 10.02 13.2039 10.74ZM38.8047 6.98V8.4C38.8047 10.4533 38.158 12.12 36.8647 13.4C35.5847 14.6667 33.918 15.3 31.8647 15.3C29.678 15.3 27.878 14.6 26.4647 13.2C25.0647 11.8 24.3647 10.0733 24.3647 8.02C24.3647 5.96667 25.0647 4.23333 26.4647 2.82C27.8647 1.40667 29.598 0.699999 31.6647 0.699999C32.9714 0.699999 34.1647 0.993333 35.2447 1.58C36.338 2.16667 37.1914 2.94667 37.8047 3.92L34.7647 5.66C34.4847 5.22 34.0714 4.86667 33.5247 4.6C32.9914 4.33333 32.3847 4.2 31.7047 4.2C30.598 4.2 29.6914 4.56 28.9847 5.28C28.278 6 27.9247 6.92 27.9247 8.04C27.9247 9.12 28.2714 10.0333 28.9647 10.78C29.6714 11.5267 30.658 11.9 31.9247 11.9C33.5514 11.9 34.6247 11.2867 35.1447 10.06H31.7447V6.98H38.8047ZM52.4711 13.2C51.0578 14.6 49.3244 15.3 47.2711 15.3C45.2178 15.3 43.4778 14.6 42.0511 13.2C40.6378 11.7867 39.9311 10.0533 39.9311 8C39.9311 5.94667 40.6378 4.22 42.0511 2.82C43.4778 1.40667 45.2178 0.699999 47.2711 0.699999C49.3244 0.699999 51.0578 1.40667 52.4711 2.82C53.8978 4.22 54.6111 5.94667 54.6111 8C54.6111 10.0533 53.8978 11.7867 52.4711 13.2ZM44.5711 10.74C45.2911 11.4467 46.1911 11.8 47.2711 11.8C48.3511 11.8 49.2511 11.4467 49.9711 10.74C50.6911 10.02 51.0511 9.10667 51.0511 8C51.0511 6.89333 50.6911 5.98667 49.9711 5.28C49.2511 4.56 48.3511 4.2 47.2711 4.2C46.1911 4.2 45.2911 4.56 44.5711 5.28C43.8511 5.98667 43.4911 6.89333 43.4911 8C43.4911 9.10667 43.8511 10.02 44.5711 10.74Z" fill="white"/>
</svg>
